<?xml version="1.0" encoding="UTF-8" ?>
<svg
	width="1024px"
	height="1024px"
	viewBox="0 0 1024 1024"
	version="1.1"
	xmlns="http://www.w3.org/2000/svg"
	xmlns:xlink="http://www.w3.org/1999/xlink"
>
    <title>svelte-tweakpane-logo</title>
    <defs>
        <linearGradient
			x1="47.409724%"
			y1="123.354815%"
			x2="50%"
			y2="-9.26956503%"
			id="linearGradient-1"
		>
            <stop stop-color="#FF00E0" offset="0%" />
            <stop stop-color="#FFA000" offset="100%" />
            <stop stop-color="#000000" stop-opacity="0.5" offset="100%" />
            <stop stop-color="#FF0000" offset="100%" />
        </linearGradient>
        <path
			d="M580.450819,98.4382631 C511.265636,-0.439289677 374.618248,-29.7471676 275.823137,33.1066721 L102.347944,143.535993 C54.9368144,173.301924 22.2769289,221.634656 12.3805968,276.676926 C4.1058775,322.522863 11.3817332,369.815065 33.0563226,411.066699 C18.2020176,433.563858 8.07026063,458.835014 3.27343191,485.352737 C-6.70884046,541.445583 6.35484435,599.189067 39.5158238,645.549651 C108.701007,744.440489 245.355047,773.75501 344.136853,710.881242 L517.651961,600.451921 C565.051465,570.681502 597.697221,522.348237 607.579394,467.310988 C615.867799,421.468754 608.610886,374.175612 586.956887,332.914572 C601.801191,310.416709 611.925908,285.148438 616.719821,258.635177 C626.714748,202.542982 613.652544,144.79544 580.484081,98.4382631"
			id="path-2"
		/>
    </defs>
    <g id="svelte-tweakpane-logo" stroke="none" stroke-width="1" fill="none" fill-rule="evenodd">
        <g
			id="Svelte-Tweakpane-Logo"
			transform="translate(511.5, 511.5) rotate(-330) translate(-511.5, -511.5)translate(62, 62)"
			fill="#BBBCC4"
		>
            <path
				d="M599.333333,2.67296523e-13 C764.834663,2.67296523e-13 899,134.165337 899,299.666667 L899,599.333333 C899,764.834663 764.834663,899 599.333333,899 L599.333333,2.67296523e-13 Z M299.008059,0.000710560562 L299.008059,898.994731 L294.71113,898.959853 C131.495446,896.31356 6.06055566e-14,763.17965 6.06055566e-14,599.333333 L6.06055566e-14,299.666667 C6.06055566e-14,134.385272 133.808988,0.356640951 299.008059,0.000710560562 Z"
				id="Tweakpane-Logo"
			/>
        </g>
        <g id="Svelte-Logo" transform="translate(202, 140)" fill-rule="nonzero">
            <g id="Path">
                <use fill="#595959" xlink:href="#path-2" />
                <use fill="url(#linearGradient-1)" xlink:href="#path-2" />
            </g>
            <path
				d="M248.443716,661.561936 C192.59458,676.089216 133.619091,654.212526 100.72666,606.766963 C80.816603,578.872629 72.9724633,544.129382 78.964683,510.378863 C79.9685995,504.894098 81.3514154,499.485605 83.1031785,494.19231 L86.3648179,484.221127 L95.2463084,490.742281 C115.738842,505.820222 138.653862,517.285675 163.003379,524.644302 L169.440301,526.598654 L168.849087,533.03339 C168.067144,542.176939 170.545164,551.302281 175.844008,558.792279 C185.748367,573.095779 203.521503,579.692326 220.351103,575.311205 C224.11012,574.310919 227.694334,572.741738 230.979663,570.657987 L404.238478,460.137397 C412.812066,454.736763 418.720897,445.977139 420.520103,436.000487 C422.31532,425.826284 419.950512,415.356909 413.956968,406.944461 C404.051154,392.642435 386.281909,386.042025 369.449872,390.41224 C365.691096,391.413215 362.106984,392.982351 358.821312,395.065458 L292.705026,437.243561 C281.824327,444.161023 269.951766,449.375121 257.497921,452.705542 C201.648682,467.234859 142.672047,445.357743 109.780864,397.910569 C89.8649872,370.018786 82.0180999,335.273976 88.0122447,301.522469 C93.9658648,268.401078 113.58831,239.322256 142.065115,221.420634 L315.343859,110.919987 C326.221874,103.992786 338.094929,98.7717452 350.550964,95.4380637 C406.4001,80.9107836 465.375589,102.787474 498.26802,150.233037 C518.1804,178.126388 526.026953,212.869719 520.03664,246.621137 C519.024197,252.104666 517.639271,257.512728 515.891501,262.80769 L512.629862,272.778873 L503.755014,266.271014 C483.26364,251.191177 460.348281,239.725555 435.997944,232.368993 L429.55438,230.414641 L430.152236,223.979904 C430.932207,214.831285 428.457133,205.701065 423.163958,198.201073 C413.258348,183.899186 395.48636,177.303065 378.656863,181.682147 C374.897846,182.682434 371.313632,184.251614 368.028302,186.335366 L194.722988,296.862603 C186.150708,302.259002 180.245419,311.018111 178.454648,320.992865 C176.650713,331.167495 179.011044,341.640643 185.004498,350.055539 C194.911561,364.355955 212.67966,370.955939 229.511593,366.58776 C233.269754,365.585021 236.853606,364.015999 240.140153,361.934542 L306.249797,319.776381 C317.125648,312.846692 328.999446,307.627566 341.456902,304.301105 C397.304164,289.772814 456.278354,311.650007 489.167316,359.096078 C509.083193,386.987861 516.93008,421.732671 510.935935,455.484178 C504.994031,488.604717 485.390169,517.690667 456.929565,535.612603 L283.650821,646.080013 C272.773447,653.008415 260.900202,658.229539 248.443716,661.561936"
				id="Path"
				fill="#FFFFFF"
			/>
        </g>
    </g>
</svg>
