<?xml version="1.0" encoding="UTF-8"?>
<svg width="1024px" height="1024px" viewBox="0 0 1024 1024" version="1.1" xmlns="http://www.w3.org/2000/svg" xmlns:xlink="http://www.w3.org/1999/xlink">
    <title>favicon</title>
    <g id="favicon" stroke="none" stroke-width="1" fill="none" fill-rule="evenodd">
        <g id="Svelte-Tweakpane-Logo" transform="translate(512, 512) rotate(-360) translate(-512, -512)translate(-0, -0)">
            <path d="M682.666667,0 C871.179861,0 1024,152.820139 1024,341.333333 L1024,682.666667 C1024,871.179861 871.179861,1024 682.666667,1024 L682.666667,0 Z M340.58315,0.000809359306 L340.58315,1023.994 L335.688763,1023.95427 C149.779018,1020.94003 -9.97060568e-14,869.294729 -9.97060568e-14,682.666667 L-9.97060568e-14,341.333333 C-9.97060568e-14,153.070655 152.414242,0.406229515 340.58315,0.000809359306 Z" id="Tweakpane-Logo" fill="#D8D8D8"></path>
            <g id="Svelte-Logo" transform="translate(192, 128)" fill-rule="nonzero">
                <path d="M599.175039,101.481381 C527.758076,-0.452869869 386.702708,-30.6667709 284.720658,34.1301311 L105.649491,147.973261 C56.7089697,178.659376 22.9955395,228.486265 12.7799709,285.23011 C4.23832516,332.493328 11.7488859,381.24752 34.1226556,423.774406 C18.7891795,446.967042 8.33059162,473.01943 3.37902649,500.356921 C-6.92525467,558.18382 6.55983932,617.712385 40.7905278,665.506159 C112.207491,767.454106 253.269726,797.674855 355.238042,732.857409 L534.350411,619.014279 C583.278931,588.323538 616.977776,538.496099 627.178729,481.75743 C635.734503,434.49803 628.243495,385.742869 605.89098,343.206286 C621.214133,320.012924 631.665453,293.963511 636.614008,266.630619 C646.931353,208.804391 633.447787,149.271644 599.209374,101.481381" id="Path" fill="#FF3E00"></path>
                <path d="M257.636173,681.532507 C200.074955,696.501354 139.291544,673.959706 105.39078,625.072001 C84.8703709,596.329799 76.7857654,560.530506 82.9616794,525.754115 C83.9963715,520.102636 85.4215782,514.529749 87.2270425,509.07556 L90.588669,498.801296 L99.7424258,505.520665 C120.863167,521.056911 144.480659,532.870865 169.576621,540.453163 L176.21087,542.466918 L175.601532,549.097243 C174.795618,558.518717 177.349603,567.92143 182.810886,575.639092 C193.018868,590.377358 211.336848,597.174411 228.682367,592.660123 C232.556619,591.629432 236.250708,590.012555 239.636751,587.865466 L418.206897,473.985524 C427.043312,468.420734 433.133281,459.394854 434.987643,449.114955 C436.837893,438.631499 434.400591,427.843901 428.223312,419.17575 C418.01383,404.439004 399.699861,397.637969 382.35183,402.14102 C378.477827,403.172421 374.783842,404.789252 371.397447,406.935677 L303.254334,450.395813 C292.040082,457.523536 279.803562,462.896121 266.967938,466.327772 C209.406614,481.298718 148.622023,458.756631 114.722545,409.867267 C94.1961376,381.127693 86.1087003,345.326789 92.2865985,310.549381 C98.4227296,276.421242 118.64671,246.458547 147.996486,228.012793 L326.587171,114.153399 C337.798657,107.015641 350.035686,101.635903 362.873567,98.2008915 C420.434785,83.2320443 481.218195,105.773692 515.11896,154.661397 C535.641763,183.402587 543.728856,219.201966 537.554907,253.979283 C536.511426,259.629488 535.084045,265.201932 533.282697,270.657838 L529.92107,280.932102 L520.77416,274.226433 C499.654613,258.688233 476.036773,246.874105 450.939965,239.293935 L444.298869,237.280179 L444.915054,230.649854 C445.718935,221.223156 443.167986,211.815416 437.712546,204.087457 C427.503275,189.350853 409.186479,182.554239 391.841065,187.066426 C387.966814,188.097117 384.272724,189.713994 380.886681,191.861083 L202.26861,305.747875 C193.433543,311.308301 187.347225,320.33365 185.501557,330.611594 C183.642321,341.095489 186.075009,351.886976 192.252195,360.557649 C202.462964,375.292736 220.775753,382.093332 238.123677,377.592378 C241.997045,376.559161 245.690762,374.942447 249.07806,372.797722 L317.214327,329.358134 C328.423582,322.217811 340.661377,316.840047 353.500722,313.412476 C411.060009,298.442587 471.84208,320.984752 505.739269,369.872981 C526.265676,398.612555 534.353114,434.413459 528.175216,469.190867 C522.051159,503.318128 501.846331,533.288166 472.513254,551.754853 L293.922568,665.58 C282.711743,672.718995 270.474518,678.098819 257.636173,681.532507" id="Path" fill="#FFFFFF"></path>
            </g>
        </g>
    </g>
</svg>