<?xml version="1.0" encoding="UTF-8" ?>
<svg
	width="1024px"
	height="1024px"
	viewBox="0 0 1024 1024"
	version="1.1"
	xmlns="http://www.w3.org/2000/svg"
	xmlns:xlink="http://www.w3.org/1999/xlink"
>
    <title>svelte-logo</title>
    <g id="svelte-logo" stroke="none" stroke-width="1" fill="none" fill-rule="evenodd">
        <g
			id="Svelte-Logo"
			transform="translate(512.5, 512.5) rotate(-360) translate(-512.5, -512.5)translate(95, 12)"
			fill-rule="nonzero"
		>
            <path
				d="M781.736184,132.441803 C688.559365,-0.591033557 504.526189,-40.0227349 371.471484,44.5427135 L137.83957,193.117646 C73.9874839,233.165627 30.001993,298.193939 16.6738683,372.249466 C5.52968986,433.93197 15.3286246,497.560322 44.5194022,553.061513 C24.5140076,583.329868 10.8688188,617.330443 4.40857362,653.008185 C-9.0352932,728.477189 8.55854037,806.167011 53.2188917,868.541936 C146.39571,1001.59265 330.437846,1041.03329 463.474633,956.441025 L697.160302,807.866093 C760.99673,767.812075 804.963192,702.783045 818.272248,628.734273 C829.434859,567.056751 819.661435,503.427134 790.498388,447.913288 C810.490314,417.643986 824.126021,383.647294 830.582339,347.975554 C844.04325,272.507425 826.45141,194.812145 781.78098,132.441803"
				id="Path"
				fill="#FF3E00"
			/>
            <path
				d="M336.389533,889.033699 C261.338334,908.563416 182.08588,879.153535 137.884365,815.370196 C111.128828,777.870508 100.587715,731.1635 108.640181,685.791063 C109.989264,678.41763 111.84752,671.146735 114.201575,664.030705 L118.584632,650.625967 L130.519758,659.392666 C158.058039,679.662664 188.851707,695.076221 221.57308,704.968775 L230.223145,707.596103 L229.428661,716.246628 C228.377869,728.538737 231.707883,740.806371 238.828577,750.875534 C252.138255,770.104413 276.022155,778.972466 298.638112,773.082716 C303.689555,771.737983 308.506094,769.628459 312.920986,766.827172 L545.749685,618.249057 C557.271046,610.988727 565.211452,599.212745 567.629263,585.800655 C570.041711,572.122986 566.863834,558.048506 558.809588,546.739249 C545.497955,527.512352 521.619284,518.639105 499.000053,524.514194 C493.948933,525.859852 489.132531,527.969317 484.717179,530.769738 L395.868776,587.471779 C381.247073,596.771254 365.292486,603.780815 348.556756,608.258059 C273.50542,627.790514 194.251425,598.380061 150.051588,534.594556 C123.28823,497.098299 112.743424,450.389189 120.798477,405.015424 C128.799072,360.488754 155.168111,321.396702 193.435818,297.330696 L426.291298,148.779391 C440.909394,139.466823 456.864646,132.447929 473.603318,127.966301 C548.654517,108.436584 627.906971,137.846465 672.108486,201.629804 C698.867144,239.12817 709.411501,285.835291 701.361597,331.208937 C700.001055,338.580708 698.139965,345.851024 695.791276,352.969295 L691.408219,366.374033 L679.482019,357.625207 C651.945296,337.352661 621.151173,321.938876 588.428698,312.049098 L579.769706,309.42177 L580.573117,300.771245 C581.621258,288.472319 578.295203,276.198128 571.182128,266.11553 C557.870769,246.888819 533.988412,238.021338 511.372593,243.908347 C506.32115,245.25308 501.504611,247.362605 497.089719,250.163892 L264.198532,398.750943 C252.678929,406.00558 244.743282,417.780869 242.336808,431.190408 C239.912643,444.86865 243.084505,458.948204 251.138629,470.260751 C264.45194,489.485484 288.329072,498.358159 310.948164,492.485806 C315.998455,491.137777 320.814508,489.028465 325.231038,486.230262 L414.070514,429.55503 C428.685702,420.239117 444.641953,413.222797 461.382534,408.750877 C536.431214,389.219801 615.681923,418.630357 659.878775,482.41438 C686.642133,519.910638 697.186939,566.619748 689.131886,611.993513 C681.147035,656.519037 654.802968,695.62067 616.557033,719.713986 L383.701553,868.220609 C369.084318,877.534791 353.128811,884.553798 336.389533,889.033699"
				id="Path"
				fill="#FFFFFF"
			/>
        </g>
    </g>
</svg>
