<?xml version="1.0" encoding="UTF-8"?>
<svg width="1024px" height="1024px" viewBox="0 0 1024 1024" version="1.1" xmlns="http://www.w3.org/2000/svg" xmlns:xlink="http://www.w3.org/1999/xlink">
    <title>svelte-tweakpane-ui-logo-new</title>
    <g id="svelte-tweakpane-ui-logo-new" stroke="none" stroke-width="1" fill="none" fill-rule="evenodd">
        <g id="Svelte-Tweakpane-Logo" transform="translate(511.9665, 512.125) rotate(-360) translate(-511.9665, -512.125)translate(-114.2235, -114.0681)">
            <path d="M777.555211,172.837921 C944.345206,172.837921 1079.55521,308.047927 1079.55521,474.837921 L1079.55521,776.837921 C1079.55521,943.627916 944.345206,1078.83792 777.555211,1078.83792 L777.555211,172.837921 Z M473.824887,173.548249 L473.824887,1079.54825 L469.499333,1079.5131 C305.196334,1076.84618 172.824887,942.674743 172.824887,777.55155 L172.824887,475.549542 C172.824887,308.980087 307.525288,173.906953 473.824887,173.548249 Z" id="Tweakpane-Logo" fill="#BBBCC4" transform="translate(626.19, 626.1931) rotate(57.4) translate(-626.19, -626.1931)"></path>
            <g id="Svelte-Logo" transform="translate(341.2235, 283.0681)" fill-rule="nonzero">
                <path d="M535.512691,90.7643125 C471.683781,-0.405043976 345.615545,-27.428168 254.469088,30.5257757 L94.4242323,132.346359 C50.6836416,159.791828 20.5522635,204.356685 11.422099,255.108026 C3.78800312,297.379951 10.5005668,340.985396 30.4971234,379.021177 C16.7928292,399.764525 7.44546626,423.065618 3.02000493,447.516099 C-6.18944636,499.236115 5.8628564,552.478091 36.4565342,595.224543 C100.285445,686.40615 226.359818,713.435399 317.494,655.46308 L477.57568,553.642497 C521.305545,526.19289 551.423888,481.627541 560.540989,430.88083 C568.187712,388.612319 561.492624,345.006008 541.515064,306.961554 C555.210131,286.217557 564.550999,262.919124 568.97377,238.472757 C578.194897,186.753341 566.14396,133.507624 535.543378,90.7643125" id="Path" fill="#FF3E00"></path>
                <path d="M228.959379,609.909263 C177.502871,623.299626 123.165904,603.135024 92.8605179,559.402592 C74.5164207,533.691293 67.2892358,501.667083 72.8101573,470.557909 C73.7351141,465.502386 75.0091692,460.517166 76.6231533,455.638129 L79.6282592,446.4473 L87.8112055,452.458102 C106.691966,466.356031 127.804682,476.924188 150.239068,483.706922 L156.169715,485.508324 L155.625001,491.439473 C154.904559,499.867439 157.187679,508.278624 162.06976,515.182449 C171.195125,528.366545 187.570374,534.44684 203.076297,530.408589 C206.539661,529.486586 209.841971,528.040211 212.868903,526.119536 L372.50062,424.248383 C380.399881,419.270408 385.843972,411.196319 387.501668,402.000449 C389.155688,392.622487 386.976876,382.972456 381.454734,375.218372 C372.328029,362.035636 355.956366,355.951779 340.448197,359.979977 C336.985055,360.902616 333.682839,362.34895 330.655591,364.269031 L269.739462,403.146239 C259.714548,409.522334 248.775785,414.328372 237.301455,417.398152 C185.844853,430.790391 131.50683,410.625398 101.202594,366.891481 C82.8531343,341.182534 75.6234179,309.156882 81.1461131,278.046798 C86.6314709,247.517516 104.710577,220.714427 130.947634,204.213802 L290.597713,102.361031 C300.620153,95.9759591 311.559372,91.1635217 323.03572,88.090737 C374.492227,74.7003745 428.829194,94.864976 459.134581,138.597408 C477.480818,164.307801 484.710227,196.332089 479.191061,227.442091 C478.258248,232.496475 476.98225,237.481297 475.371945,242.361871 L472.366839,251.5527 L464.190013,245.554152 C445.31032,231.654476 424.197293,221.086163 401.762151,214.305333 L395.825383,212.50393 L396.376217,206.572781 C397.094842,198.140141 394.814437,189.72446 389.937579,182.811424 C380.811062,169.628815 364.436871,163.548913 348.931042,167.585283 C345.467678,168.507287 342.165369,169.953662 339.138436,171.874337 L179.463876,273.751617 C171.565821,278.725689 166.124993,286.799302 164.475069,295.993424 C162.813016,305.371778 164.987704,315.025289 170.509762,322.781628 C179.637618,335.96288 196.008226,342.046344 211.5163,338.020023 C214.978874,337.095759 218.28085,335.64953 221.308905,333.730969 L282.218914,294.872142 C292.239361,288.484777 303.179265,283.674104 314.656921,280.607975 C366.111702,267.216681 420.447472,287.381745 450.749662,331.114646 C469.099122,356.823594 476.328838,388.849245 470.806143,419.95933 C465.331579,450.487826 447.269594,477.297484 421.047464,493.816834 L261.397386,595.638969 C251.375536,602.025148 240.436141,606.837662 228.959379,609.909263" id="Path" fill="#FFFFFF"></path>
            </g>
        </g>
    </g>
</svg>