<?xml version="1.0" encoding="UTF-8"?>
<svg width="1024px" height="1024px" viewBox="0 0 1024 1024" version="1.1" xmlns="http://www.w3.org/2000/svg" xmlns:xlink="http://www.w3.org/1999/xlink">
    <title>svelte-tweakpane-ui-logo-light</title>
    <g id="svelte-tweakpane-ui-logo-light" stroke="none" stroke-width="1" fill="none" fill-rule="evenodd">
        <g id="Svelte-Tweakpane-Logo" transform="translate(512, 512) rotate(-360) translate(-512, -512)translate(45, 45)">
            <path d="M622.666667,0 C794.611319,0 934,139.388681 934,311.333333 L934,622.666667 C934,794.611319 794.611319,934 622.666667,934 L622.666667,0 Z M310.649084,0.000738224211 L310.649084,933.994526 L306.184867,933.95829 C136.614846,931.208971 -5.21798573e-14,792.891872 -5.21798573e-14,622.666667 L-5.21798573e-14,311.333333 C-5.21798573e-14,139.617179 139.018459,0.370525749 310.649084,0.000738224211 Z" id="Tweakpane-Logo" fill="#979797"></path>
            <g id="Svelte-Logo" transform="translate(175, 117)" fill-rule="nonzero">
                <path d="M546.747223,92.6166454 C481.579245,-0.41331018 352.866221,-27.9879265 259.8076,31.1487507 L96.4051603,135.047305 C51.7469348,163.052886 20.9834298,208.52723 11.6617235,260.314312 C3.86747171,303.44893 10.7208584,347.944281 31.1369232,386.756303 C17.1451263,407.922985 7.60166486,431.69961 3.08336167,456.64908 C-6.31929488,509.424607 5.98585338,563.753155 37.2213566,607.371983 C102.389335,700.414439 231.108625,727.995305 324.154713,668.839878 L487.59475,564.941323 C532.242025,536.931521 562.992221,491.456675 572.30059,439.674316 C580.107734,396.543183 573.27219,352.046947 552.87552,313.226076 C566.857896,292.058731 576.394726,268.284821 580.910283,243.339548 C590.32486,190.564633 578.021106,136.232269 546.778554,92.6166454" id="Path" fill="#FF3E00"></path>
                <path d="M235.093008,621.998377 C182.568396,635.659645 127.103534,615.087085 96.1690866,570.469884 C77.4442135,544.238408 70.0670109,511.566303 75.7025324,479.827746 C76.646689,474.669942 77.9471901,469.583864 79.5946763,464.606118 L82.6621605,455.229345 L91.0149635,461.361754 C110.28764,475.540857 131.838601,486.322823 154.738667,493.242782 L160.792419,495.08063 L160.236398,501.131774 C159.501002,509.73025 161.831513,518.311605 166.814934,525.355104 C176.129717,538.805933 192.844874,545.009241 208.67266,540.889291 C212.207915,539.948634 215.578771,538.472997 218.668535,536.513463 L381.613794,432.581312 C389.677022,427.502625 395.234119,419.265186 396.926225,409.883271 C398.614578,400.31558 396.390539,390.470314 390.753772,382.559354 C381.43762,369.109912 364.726123,362.902971 348.896045,367.012665 C345.361017,367.953969 341.990256,369.429565 338.90017,371.388492 L276.71958,411.052242 C266.486574,417.557334 255.320751,422.460605 243.608244,425.592491 C191.083536,439.255675 135.617596,418.682715 104.684323,374.063998 C85.9539756,347.834922 78.574189,315.161346 84.2115211,283.42186 C89.8107407,252.274927 108.265123,224.929574 135.046793,208.095117 L298.010794,104.18172 C308.241274,97.6674686 319.407563,92.7576687 331.12213,89.6227172 C383.646741,75.9614485 439.111603,96.5340087 470.046051,141.15121 C488.773108,167.381761 496.152581,200.053946 490.518852,231.793348 C489.566676,236.949989 488.264192,242.035662 486.620461,247.014976 L483.552977,256.391749 L475.206421,250.271842 C455.934834,236.090956 434.383555,225.308831 411.482718,218.390814 L405.422718,216.552967 L405.984986,210.501822 C406.718528,201.898577 404.390787,193.312635 399.412699,186.259739 C390.096739,172.810427 373.382662,166.607519 357.554972,170.725552 C354.019717,171.666208 350.648861,173.141846 347.559097,175.101379 L184.570107,279.039781 C176.508108,284.114486 170.954343,292.35144 169.27017,301.731572 C167.573618,311.299664 169.793446,321.148479 175.430128,329.061739 C184.747455,342.509667 201.457874,348.716209 217.287855,344.608429 C220.822304,343.665466 224.19282,342.189977 227.28373,340.232601 L289.458073,300.587606 C299.686519,294.071014 310.853507,289.163015 322.569409,286.034854 C375.092258,272.372635 430.555898,292.945667 461.487083,337.563347 C480.21743,363.792423 487.597216,396.465999 481.959884,428.205485 C476.371683,459.351616 457.934777,486.703672 431.168344,503.557232 L268.204344,607.439374 C257.974466,613.954755 246.807998,618.864633 235.093008,621.998377" id="Path" fill="#FFFFFF"></path>
            </g>
        </g>
    </g>
</svg>